<svg xmlns="http://www.w3.org/2000/svg" viewBox="0 0 200 200" width="32" height="32">
  <!-- Background Gradient -->
  <defs>
    <linearGradient id="grapheneGradient" x1="0%" y1="0%" x2="100%" y2="100%">
      <stop offset="0%" stop-color="#87CEEB" />
      <stop offset="100%" stop-color="#87CEEB" />
    </linearGradient>
  </defs>

  <!-- Hexagon Pattern -->
  <g stroke="url(#grapheneGradient)" stroke-width="3" fill="none">
    <!-- Center Hexagon -->
    <polygon points="100,50 125,65 125,95 100,110 75,95 75,65" />
    <!-- Surrounding Hexagons -->
    <polygon points="125,65 150,50 175,65 175,95 150,110 125,95" />
    <polygon points="75,65 50,50 25,65 25,95 50,110 75,95" />
    <polygon points="100,110 125,125 125,155 100,170 75,155 75,125" />
    <polygon points="50,110 75,125 75,155 50,170 25,155 25,125" />
    <polygon points="150,110 175,125 175,155 150,170 125,155 125,125" />
  </g>

  <!-- Carbon Atoms -->
  <g fill="#87CEEB">
    <circle cx="100" cy="50" r="4" />
    <circle cx="125" cy="65" r="4" />
    <circle cx="75" cy="65" r="4" />
    <circle cx="125" cy="95" r="4" />
    <circle cx="100" cy="110" r="4" />
    <circle cx="75" cy="95" r="4" />
    <!-- Additional atoms in surrounding hexagons -->
    <circle cx="150" cy="50" r="4" />
    <circle cx="50" cy="50" r="4" />
    <circle cx="25" cy="65" r="4" />
    <circle cx="175" cy="65" r="4" />
    <circle cx="125" cy="125" r="4" />
    <circle cx="75" cy="125" r="4" />
  </g>
</svg>
